# xmcd CD database file
#
# Track frame offsets:
#	150
#	11099
#	26080
#	41052
#	60349
#	77064
#	96384
#	122808
#	137905
#	149641
#
# Disc length: 2103 seconds
#
# Revision: 2
# Processed by: cddbd v1.5.2PL0 Copyright (c) Steve Scherf et al.
# Submitted via: CD2WAV32(JP) R3.22
#
DISCID=8f08350a
DTITLE=Duwayne Burnside and the Mississippi Mafia - Under Pressure
DYEAR=2005
DGENRE=Blues
TTITLE0=Pressure
TTITLE1=Why You Act Like That
TTITLE2=Tribute
TTITLE3=Gotta' Pretty Woman
TTITLE4=She Threw My Clothes Out
TTITLE5=Treatin' Me So Bad
TTITLE6=Bad Luck City
TTITLE7=King
TTITLE8=I Got The Blues
TTITLE9=Hard Candy Part II
EXTD=
EXTT0=
EXTT1=
EXTT2=
EXTT3=
EXTT4=
EXTT5=
EXTT6=
EXTT7=
EXTT8=
EXTT9=
PLAYORDER=
